<svg xmlns="http://www.w3.org/2000/svg" xmlns:xlink="http://www.w3.org/1999/xlink" width="220" zoomAndPan="magnify" viewBox="0 0 165 37.5" height="50" preserveAspectRatio="xMidYMid meet" version="1.0"><defs><clipPath id="3109be24f8"><path d="M 1.085938 0 L 163.914062 0 L 163.914062 37.007812 L 1.085938 37.007812 Z M 1.085938 0 " clip-rule="nonzero"/></clipPath></defs><path fill="#122f4a" d="M 31.851562 3.320312 L 37.082031 3.320312 L 41.359375 4.507812 L 43.976562 6.167969 L 46.117188 8.066406 L 48.253906 11.386719 L 49.207031 14.472656 L 49.207031 19.453125 L 48.015625 23.011719 L 46.589844 25.621094 L 45.402344 26.09375 L 43.023438 23.484375 L 42.3125 22.535156 L 42.3125 20.402344 L 42.785156 19.214844 L 42.785156 14.945312 L 41.597656 12.335938 L 39.695312 10.199219 L 37.554688 9.253906 L 32.089844 9.253906 L 29.472656 10.675781 L 27.808594 12.574219 L 26.859375 14.945312 L 26.859375 19.453125 L 28.046875 22.296875 L 29.472656 23.960938 L 32.089844 25.382812 L 37.792969 25.382812 L 38.984375 25.144531 L 37.792969 23.246094 L 36.605469 22.535156 L 34.941406 22.296875 L 33.515625 20.875 L 33.515625 18.027344 L 34.941406 16.84375 L 37.554688 16.84375 L 38.746094 17.554688 L 39.222656 18.265625 L 39.457031 21.113281 L 42.550781 24.195312 L 44.6875 26.804688 L 45.640625 27.753906 L 45.640625 28.230469 L 48.253906 28.230469 L 49.679688 29.652344 L 49.679688 32.5 L 48.730469 33.683594 L 48.253906 33.921875 L 45.640625 33.921875 L 44.214844 32.734375 L 43.976562 32.261719 L 43.976562 29.652344 L 42.550781 29.414062 L 39.222656 30.839844 L 37.792969 31.074219 L 31.375 31.074219 L 28.523438 30.125 L 25.195312 27.992188 L 24.003906 27.042969 L 21.867188 23.722656 L 20.4375 19.925781 L 20.4375 14.707031 L 21.628906 11.148438 L 23.292969 8.539062 L 25.90625 5.929688 L 28.761719 4.269531 Z M 31.851562 3.320312 " fill-opacity="1" fill-rule="nonzero"/><path fill="#c2dde6" d="M 131.941406 10.914062 L 142.164062 10.914062 L 140.738281 13.523438 L 136.222656 20.164062 L 136.457031 21.824219 L 138.359375 24.433594 L 140.738281 27.992188 L 142.164062 30.125 L 142.164062 30.601562 L 131.941406 30.601562 L 130.277344 28.941406 L 129.328125 27.753906 L 129.328125 27.28125 L 128.136719 27.753906 L 125.761719 30.601562 L 115.539062 30.601562 L 116.488281 28.703125 L 118.867188 25.144531 L 121.242188 21.585938 L 121.242188 20.402344 L 117.4375 14.945312 L 115.539062 12.097656 L 115.300781 11.148438 L 125.523438 11.148438 L 127.664062 13.523438 L 128.375 14.472656 L 129.089844 14.472656 L 131.703125 11.148438 Z M 131.941406 10.914062 " fill-opacity="1" fill-rule="nonzero"/><path fill="#102d4a" d="M 51.347656 11.148438 L 56.8125 11.148438 L 57.050781 23.722656 L 58.003906 25.382812 L 58.476562 25.621094 L 61.804688 25.621094 L 63.234375 24.433594 L 63.707031 23.011719 L 63.945312 14.945312 L 64.183594 11.148438 L 69.414062 11.148438 L 69.414062 30.601562 L 64.183594 30.601562 L 63.707031 29.175781 L 61.804688 30.601562 L 55.386719 30.601562 L 53.246094 29.175781 L 52.058594 27.28125 L 51.347656 25.621094 Z M 51.347656 11.148438 " fill-opacity="1" fill-rule="nonzero"/><path fill="#122d4a" d="M 80.589844 11.148438 L 96.28125 11.148438 L 96.28125 15.894531 L 93.664062 18.742188 L 91.761719 21.113281 L 89.621094 23.484375 L 87.722656 26.09375 L 96.28125 26.09375 L 96.28125 30.601562 L 80.351562 30.601562 L 80.351562 26.566406 L 82.015625 24.671875 L 84.867188 21.585938 L 87.007812 18.976562 L 89.621094 15.894531 L 89.859375 15.417969 L 80.589844 15.417969 Z M 80.589844 11.148438 " fill-opacity="1" fill-rule="nonzero"/><path fill="#2fa1cd" d="M 98.417969 11.148438 L 113.160156 11.148438 L 113.160156 14.707031 L 102.9375 14.707031 L 102.9375 18.503906 L 111.972656 18.503906 L 111.972656 22.535156 L 103.414062 22.535156 L 103.414062 26.566406 L 113.398438 26.566406 L 113.398438 30.363281 L 98.65625 30.363281 L 98.417969 22.773438 Z M 98.417969 11.148438 " fill-opacity="1" fill-rule="nonzero"/><path fill="#2fb0c0" d="M 131.941406 10.914062 L 142.164062 10.914062 L 140.738281 13.523438 L 136.222656 20.164062 L 136.457031 21.824219 L 138.359375 24.433594 L 140.738281 27.992188 L 142.164062 30.125 L 142.164062 30.601562 L 131.941406 30.601562 L 130.277344 28.941406 L 129.328125 27.753906 L 129.328125 27.28125 L 128.136719 27.753906 L 125.761719 30.601562 L 115.539062 30.601562 L 116.488281 28.703125 L 118.867188 25.144531 L 121.242188 21.585938 L 121.242188 20.402344 L 117.4375 14.945312 L 115.539062 12.097656 L 115.300781 11.148438 L 125.523438 11.148438 L 127.664062 13.523438 L 128.375 14.472656 L 128.375 15.183594 L 126.710938 15.417969 L 125.046875 13.757812 L 124.570312 13.046875 L 118.390625 12.808594 L 120.765625 16.132812 L 123.144531 19.6875 L 123.144531 22.296875 L 118.628906 29.175781 L 124.808594 29.175781 L 125.285156 28.230469 L 126.710938 26.566406 L 130.753906 26.332031 L 132.894531 28.703125 L 138.835938 28.703125 L 135.507812 23.960938 L 134.320312 22.296875 L 134.320312 19.453125 L 137.648438 14.472656 L 138.597656 13.046875 L 132.65625 13.046875 L 130.753906 15.417969 L 129.089844 15.183594 L 129.328125 13.996094 Z M 131.941406 10.914062 " fill-opacity="1" fill-rule="nonzero"/><path fill="#0e2b47" d="M 72.503906 11.148438 L 77.734375 11.148438 L 77.734375 30.601562 L 72.503906 30.601562 Z M 72.503906 11.148438 " fill-opacity="1" fill-rule="nonzero"/><path fill="#195884" d="M 115.300781 11.148438 L 125.523438 11.148438 L 127.664062 13.523438 L 128.375 14.472656 L 128.375 15.183594 L 126.710938 15.417969 L 125.046875 13.757812 L 124.570312 13.046875 L 118.390625 12.808594 L 120.765625 16.132812 L 123.144531 19.6875 L 123.144531 22.296875 L 118.628906 29.175781 L 124.808594 29.175781 L 125.285156 28.230469 L 126.710938 26.566406 L 128.613281 26.566406 L 129.328125 27.042969 L 127.898438 27.992188 L 125.761719 30.601562 L 115.539062 30.601562 L 116.488281 28.703125 L 118.867188 25.144531 L 121.242188 21.585938 L 121.242188 20.402344 L 117.4375 14.945312 L 115.539062 12.097656 Z M 115.300781 11.148438 " fill-opacity="1" fill-rule="nonzero"/><path fill="#2380a0" d="M 135.984375 13.285156 L 136.457031 13.285156 L 136.457031 14.707031 L 135.746094 16.84375 L 135.03125 16.84375 L 134.320312 16.605469 L 133.367188 17.792969 L 133.605469 18.976562 L 133.605469 22.535156 L 133.128906 23.484375 L 132.179688 23.011719 L 131.703125 22.535156 L 131.703125 19.6875 L 129.800781 21.351562 L 128.851562 22.296875 L 128.375 22.296875 L 128.136719 23.011719 L 127.1875 23.960938 L 129.328125 23.960938 L 130.277344 25.144531 L 130.039062 25.855469 L 127.1875 25.855469 L 125.761719 25.144531 L 124.570312 25.382812 L 123.859375 26.09375 L 125.285156 26.332031 L 124.808594 27.28125 L 124.332031 27.992188 L 120.53125 27.992188 L 121.003906 26.804688 L 123.621094 22.773438 L 123.621094 19.925781 L 124.570312 17.792969 L 126.234375 16.367188 L 127.425781 15.894531 L 129.800781 15.894531 L 130.992188 16.367188 L 129.800781 17.792969 L 127.664062 18.027344 L 126.234375 18.976562 L 125.996094 19.453125 L 125.761719 22.296875 L 127.664062 20.636719 L 132.894531 15.417969 L 132.894531 14.234375 L 134.792969 13.523438 Z M 135.984375 13.285156 " fill-opacity="1" fill-rule="nonzero"/></svg>